<svg xmlns="http://www.w3.org/2000/svg" xmlns:xlink="http://www.w3.org/1999/xlink" width="1584" zoomAndPan="magnify" viewBox="0 0 1188 296.999993" height="396" preserveAspectRatio="xMidYMid meet" version="1.0"><defs><g/><clipPath id="09c0c43851"><path d="M 106.605469 56.40625 L 286.605469 56.40625 L 286.605469 236.40625 L 106.605469 236.40625 Z M 106.605469 56.40625 " clip-rule="nonzero"/></clipPath></defs><g clip-path="url(#09c0c43851)"><path fill="#56aeff" d="M 106.605469 236.335938 L 213.238281 159.269531 L 286.523438 56.417969 L 286.523438 236.335938 Z M 106.605469 236.335938 " fill-opacity="1" fill-rule="nonzero"/><path fill="#233dff" d="M 106.605469 236.394531 L 249.371094 189.765625 L 286.523438 56.476562 L 286.523438 236.394531 Z M 106.605469 236.394531 " fill-opacity="1" fill-rule="nonzero"/><path fill="#004aad" d="M 106.605469 236.394531 L 265.417969 212.308594 L 286.523438 56.476562 L 286.523438 236.394531 Z M 106.605469 236.394531 " fill-opacity="1" fill-rule="nonzero"/></g><g fill="#000000" fill-opacity="1"><g transform="translate(324.982534, 209.488247)"><g><path d="M 35.625 1.0625 C 29.925781 1.0625 24.328125 0.0820312 18.828125 -1.875 C 13.335938 -3.832031 8.347656 -6.84375 3.859375 -10.90625 L 13.59375 -22.578125 C 17.007812 -19.796875 20.519531 -17.582031 24.125 -15.9375 C 27.726562 -14.300781 31.671875 -13.484375 35.953125 -13.484375 C 39.378906 -13.484375 42.035156 -14.109375 43.921875 -15.359375 C 45.816406 -16.609375 46.765625 -18.335938 46.765625 -20.546875 L 46.765625 -20.765625 C 46.765625 -21.828125 46.566406 -22.769531 46.171875 -23.59375 C 45.773438 -24.414062 45.023438 -25.179688 43.921875 -25.890625 C 42.816406 -26.609375 41.28125 -27.320312 39.3125 -28.03125 C 37.351562 -28.75 34.804688 -29.5 31.671875 -30.28125 C 27.890625 -31.207031 24.460938 -32.238281 21.390625 -33.375 C 18.328125 -34.519531 15.722656 -35.929688 13.578125 -37.609375 C 11.441406 -39.285156 9.785156 -41.367188 8.609375 -43.859375 C 7.429688 -46.359375 6.84375 -49.460938 6.84375 -53.171875 L 6.84375 -53.390625 C 6.84375 -56.816406 7.484375 -59.898438 8.765625 -62.640625 C 10.054688 -65.390625 11.859375 -67.765625 14.171875 -69.765625 C 16.492188 -71.765625 19.257812 -73.296875 22.46875 -74.359375 C 25.675781 -75.429688 29.207031 -75.96875 33.0625 -75.96875 C 38.550781 -75.96875 43.597656 -75.144531 48.203125 -73.5 C 52.804688 -71.863281 57.035156 -69.515625 60.890625 -66.453125 L 52.328125 -54.03125 C 48.972656 -56.3125 45.6875 -58.113281 42.46875 -59.4375 C 39.257812 -60.757812 36.050781 -61.421875 32.84375 -61.421875 C 29.632812 -61.421875 27.226562 -60.796875 25.625 -59.546875 C 24.019531 -58.296875 23.21875 -56.742188 23.21875 -54.890625 L 23.21875 -54.671875 C 23.21875 -53.460938 23.445312 -52.410156 23.90625 -51.515625 C 24.375 -50.628906 25.210938 -49.828125 26.421875 -49.109375 C 27.640625 -48.398438 29.300781 -47.722656 31.40625 -47.078125 C 33.507812 -46.429688 36.164062 -45.679688 39.375 -44.828125 C 43.15625 -43.828125 46.523438 -42.703125 49.484375 -41.453125 C 52.441406 -40.210938 54.9375 -38.71875 56.96875 -36.96875 C 59.007812 -35.21875 60.546875 -33.164062 61.578125 -30.8125 C 62.609375 -28.457031 63.125 -25.640625 63.125 -22.359375 L 63.125 -22.15625 C 63.125 -18.4375 62.445312 -15.132812 61.09375 -12.25 C 59.738281 -9.363281 57.847656 -6.9375 55.421875 -4.96875 C 52.992188 -3.007812 50.101562 -1.515625 46.75 -0.484375 C 43.40625 0.546875 39.695312 1.0625 35.625 1.0625 Z M 35.625 1.0625 "/></g></g></g><g fill="#000000" fill-opacity="1"><g transform="translate(393.456875, 209.488247)"><g><path d="M 34.453125 1.28125 C 30.171875 1.28125 26.191406 0.566406 22.515625 -0.859375 C 18.847656 -2.285156 15.675781 -4.316406 13 -6.953125 C 10.320312 -9.585938 8.234375 -12.707031 6.734375 -16.3125 C 5.242188 -19.914062 4.5 -23.929688 4.5 -28.359375 L 4.5 -28.5625 C 4.5 -32.632812 5.191406 -36.488281 6.578125 -40.125 C 7.972656 -43.757812 9.914062 -46.929688 12.40625 -49.640625 C 14.90625 -52.359375 17.882812 -54.5 21.34375 -56.0625 C 24.800781 -57.632812 28.632812 -58.421875 32.84375 -58.421875 C 37.625 -58.421875 41.757812 -57.5625 45.25 -55.84375 C 48.75 -54.132812 51.65625 -51.835938 53.96875 -48.953125 C 56.289062 -46.066406 58.003906 -42.75 59.109375 -39 C 60.222656 -35.257812 60.78125 -31.351562 60.78125 -27.28125 C 60.78125 -26.644531 60.757812 -25.96875 60.71875 -25.25 C 60.6875 -24.539062 60.632812 -23.789062 60.5625 -23 L 20.65625 -23 C 21.4375 -19.289062 23.054688 -16.488281 25.515625 -14.59375 C 27.984375 -12.707031 31.035156 -11.765625 34.671875 -11.765625 C 37.378906 -11.765625 39.800781 -12.226562 41.9375 -13.15625 C 44.082031 -14.082031 46.296875 -15.582031 48.578125 -17.65625 L 57.890625 -9.421875 C 55.179688 -6.066406 51.898438 -3.441406 48.046875 -1.546875 C 44.191406 0.335938 39.660156 1.28125 34.453125 1.28125 Z M 44.9375 -33.171875 C 44.4375 -36.804688 43.148438 -39.75 41.078125 -42 C 39.015625 -44.25 36.269531 -45.375 32.84375 -45.375 C 29.425781 -45.375 26.664062 -44.265625 24.5625 -42.046875 C 22.457031 -39.835938 21.082031 -36.878906 20.4375 -33.171875 Z M 44.9375 -33.171875 "/></g></g></g><g fill="#000000" fill-opacity="1"><g transform="translate(459.042452, 209.488247)"><g><path d="M 7.28125 -57.359375 L 23.546875 -57.359375 L 23.546875 -45.796875 C 25.179688 -49.722656 27.425781 -52.863281 30.28125 -55.21875 C 33.132812 -57.570312 36.988281 -58.640625 41.84375 -58.421875 L 41.84375 -41.40625 L 40.984375 -41.40625 C 35.554688 -41.40625 31.289062 -39.765625 28.1875 -36.484375 C 25.09375 -33.203125 23.546875 -28.101562 23.546875 -21.1875 L 23.546875 0 L 7.28125 0 Z M 7.28125 -57.359375 "/></g></g></g><g fill="#000000" fill-opacity="1"><g transform="translate(503.764775, 209.488247)"><g><path d="M 2.140625 -57.359375 L 19.359375 -57.359375 L 32.203125 -18.9375 L 45.15625 -57.359375 L 62.0625 -57.359375 L 39.484375 0.421875 L 24.71875 0.421875 Z M 2.140625 -57.359375 "/></g></g></g><g fill="#000000" fill-opacity="1"><g transform="translate(567.959456, 209.488247)"><g><path d="M 7.59375 -78.109375 L 24.71875 -78.109375 L 24.71875 -63.671875 L 7.59375 -63.671875 Z M 8.03125 -57.359375 L 24.28125 -57.359375 L 24.28125 0 L 8.03125 0 Z M 8.03125 -57.359375 "/></g></g></g><g fill="#000000" fill-opacity="1"><g transform="translate(600.270796, 209.488247)"><g><path d="M 34.34375 1.28125 C 30.0625 1.28125 26.082031 0.5 22.40625 -1.0625 C 18.738281 -2.632812 15.582031 -4.757812 12.9375 -7.4375 C 10.300781 -10.113281 8.234375 -13.25 6.734375 -16.84375 C 5.242188 -20.445312 4.5 -24.285156 4.5 -28.359375 L 4.5 -28.5625 C 4.5 -32.632812 5.242188 -36.488281 6.734375 -40.125 C 8.234375 -43.757812 10.300781 -46.929688 12.9375 -49.640625 C 15.582031 -52.359375 18.738281 -54.5 22.40625 -56.0625 C 26.082031 -57.632812 30.132812 -58.421875 34.5625 -58.421875 C 39.976562 -58.421875 44.46875 -57.5625 48.03125 -55.84375 C 51.601562 -54.132812 54.742188 -51.785156 57.453125 -48.796875 L 47.515625 -38.09375 C 45.648438 -40.019531 43.738281 -41.550781 41.78125 -42.6875 C 39.820312 -43.832031 37.378906 -44.40625 34.453125 -44.40625 C 32.378906 -44.40625 30.503906 -43.992188 28.828125 -43.171875 C 27.160156 -42.347656 25.703125 -41.222656 24.453125 -39.796875 C 23.203125 -38.367188 22.238281 -36.710938 21.5625 -34.828125 C 20.882812 -32.941406 20.546875 -30.925781 20.546875 -28.78125 L 20.546875 -28.5625 C 20.546875 -26.351562 20.882812 -24.285156 21.5625 -22.359375 C 22.238281 -20.429688 23.21875 -18.753906 24.5 -17.328125 C 25.78125 -15.898438 27.3125 -14.773438 29.09375 -13.953125 C 30.882812 -13.140625 32.882812 -12.734375 35.09375 -12.734375 C 37.800781 -12.734375 40.171875 -13.285156 42.203125 -14.390625 C 44.242188 -15.492188 46.257812 -16.972656 48.25 -18.828125 L 57.78125 -9.203125 C 55 -6.128906 51.820312 -3.613281 48.25 -1.65625 C 44.6875 0.300781 40.050781 1.28125 34.34375 1.28125 Z M 34.34375 1.28125 "/></g></g></g><g fill="#000000" fill-opacity="1"><g transform="translate(661.362732, 209.488247)"><g><path d="M 34.453125 1.28125 C 30.171875 1.28125 26.191406 0.566406 22.515625 -0.859375 C 18.847656 -2.285156 15.675781 -4.316406 13 -6.953125 C 10.320312 -9.585938 8.234375 -12.707031 6.734375 -16.3125 C 5.242188 -19.914062 4.5 -23.929688 4.5 -28.359375 L 4.5 -28.5625 C 4.5 -32.632812 5.191406 -36.488281 6.578125 -40.125 C 7.972656 -43.757812 9.914062 -46.929688 12.40625 -49.640625 C 14.90625 -52.359375 17.882812 -54.5 21.34375 -56.0625 C 24.800781 -57.632812 28.632812 -58.421875 32.84375 -58.421875 C 37.625 -58.421875 41.757812 -57.5625 45.25 -55.84375 C 48.75 -54.132812 51.65625 -51.835938 53.96875 -48.953125 C 56.289062 -46.066406 58.003906 -42.75 59.109375 -39 C 60.222656 -35.257812 60.78125 -31.351562 60.78125 -27.28125 C 60.78125 -26.644531 60.757812 -25.96875 60.71875 -25.25 C 60.6875 -24.539062 60.632812 -23.789062 60.5625 -23 L 20.65625 -23 C 21.4375 -19.289062 23.054688 -16.488281 25.515625 -14.59375 C 27.984375 -12.707031 31.035156 -11.765625 34.671875 -11.765625 C 37.378906 -11.765625 39.800781 -12.226562 41.9375 -13.15625 C 44.082031 -14.082031 46.296875 -15.582031 48.578125 -17.65625 L 57.890625 -9.421875 C 55.179688 -6.066406 51.898438 -3.441406 48.046875 -1.546875 C 44.191406 0.335938 39.660156 1.28125 34.453125 1.28125 Z M 44.9375 -33.171875 C 44.4375 -36.804688 43.148438 -39.75 41.078125 -42 C 39.015625 -44.25 36.269531 -45.375 32.84375 -45.375 C 29.425781 -45.375 26.664062 -44.265625 24.5625 -42.046875 C 22.457031 -39.835938 21.082031 -36.878906 20.4375 -33.171875 Z M 44.9375 -33.171875 "/></g></g></g><g fill="#000000" fill-opacity="1"><g transform="translate(726.948309, 209.488247)"><g><path d="M 34.671875 -75.4375 L 49.859375 -75.4375 L 81.96875 0 L 64.734375 0 L 57.890625 -16.796875 L 26.21875 -16.796875 L 19.359375 0 L 2.5625 0 Z M 52 -31.34375 L 42.046875 -55.640625 L 32.09375 -31.34375 Z M 52 -31.34375 "/></g></g></g><g fill="#000000" fill-opacity="1"><g transform="translate(811.471312, 209.488247)"><g><path d="M 32.953125 17.328125 C 28.242188 17.328125 23.75 16.8125 19.46875 15.78125 C 15.1875 14.75 11.226562 13.269531 7.59375 11.34375 L 13.15625 -0.859375 C 16.15625 0.785156 19.171875 2.070312 22.203125 3 C 25.234375 3.925781 28.675781 4.390625 32.53125 4.390625 C 38.09375 4.390625 42.210938 3.066406 44.890625 0.421875 C 47.566406 -2.210938 48.90625 -6.097656 48.90625 -11.234375 L 48.90625 -14.015625 C 46.476562 -11.085938 43.835938 -8.800781 40.984375 -7.15625 C 38.128906 -5.519531 34.523438 -4.703125 30.171875 -4.703125 C 26.816406 -4.703125 23.601562 -5.289062 20.53125 -6.46875 C 17.46875 -7.644531 14.757812 -9.375 12.40625 -11.65625 C 10.050781 -13.945312 8.175781 -16.75 6.78125 -20.0625 C 5.394531 -23.375 4.703125 -27.171875 4.703125 -31.453125 L 4.703125 -31.671875 C 4.703125 -35.953125 5.414062 -39.75 6.84375 -43.0625 C 8.269531 -46.382812 10.160156 -49.1875 12.515625 -51.46875 C 14.867188 -53.75 17.578125 -55.476562 20.640625 -56.65625 C 23.710938 -57.832031 26.890625 -58.421875 30.171875 -58.421875 C 34.597656 -58.421875 38.238281 -57.597656 41.09375 -55.953125 C 43.945312 -54.316406 46.476562 -52.285156 48.6875 -49.859375 L 48.6875 -57.359375 L 64.953125 -57.359375 L 64.953125 -12.953125 C 64.953125 -2.742188 62.523438 4.78125 57.671875 9.625 C 54.960938 12.34375 51.554688 14.304688 47.453125 15.515625 C 43.347656 16.722656 38.515625 17.328125 32.953125 17.328125 Z M 34.875 -18.1875 C 36.875 -18.1875 38.726562 -18.503906 40.4375 -19.140625 C 42.15625 -19.785156 43.640625 -20.695312 44.890625 -21.875 C 46.140625 -23.050781 47.117188 -24.457031 47.828125 -26.09375 C 48.546875 -27.738281 48.90625 -29.523438 48.90625 -31.453125 L 48.90625 -31.671875 C 48.90625 -33.597656 48.546875 -35.378906 47.828125 -37.015625 C 47.117188 -38.660156 46.140625 -40.070312 44.890625 -41.25 C 43.640625 -42.425781 42.15625 -43.332031 40.4375 -43.96875 C 38.726562 -44.613281 36.875 -44.9375 34.875 -44.9375 C 32.882812 -44.9375 31.050781 -44.613281 29.375 -43.96875 C 27.695312 -43.332031 26.234375 -42.425781 24.984375 -41.25 C 23.734375 -40.070312 22.75 -38.660156 22.03125 -37.015625 C 21.320312 -35.378906 20.96875 -33.597656 20.96875 -31.671875 L 20.96875 -31.453125 C 20.96875 -27.460938 22.285156 -24.253906 24.921875 -21.828125 C 27.566406 -19.398438 30.882812 -18.1875 34.875 -18.1875 Z M 34.875 -18.1875 "/></g></g></g><g fill="#000000" fill-opacity="1"><g transform="translate(883.690343, 209.488247)"><g><path d="M 34.453125 1.28125 C 30.171875 1.28125 26.191406 0.566406 22.515625 -0.859375 C 18.847656 -2.285156 15.675781 -4.316406 13 -6.953125 C 10.320312 -9.585938 8.234375 -12.707031 6.734375 -16.3125 C 5.242188 -19.914062 4.5 -23.929688 4.5 -28.359375 L 4.5 -28.5625 C 4.5 -32.632812 5.191406 -36.488281 6.578125 -40.125 C 7.972656 -43.757812 9.914062 -46.929688 12.40625 -49.640625 C 14.90625 -52.359375 17.882812 -54.5 21.34375 -56.0625 C 24.800781 -57.632812 28.632812 -58.421875 32.84375 -58.421875 C 37.625 -58.421875 41.757812 -57.5625 45.25 -55.84375 C 48.75 -54.132812 51.65625 -51.835938 53.96875 -48.953125 C 56.289062 -46.066406 58.003906 -42.75 59.109375 -39 C 60.222656 -35.257812 60.78125 -31.351562 60.78125 -27.28125 C 60.78125 -26.644531 60.757812 -25.96875 60.71875 -25.25 C 60.6875 -24.539062 60.632812 -23.789062 60.5625 -23 L 20.65625 -23 C 21.4375 -19.289062 23.054688 -16.488281 25.515625 -14.59375 C 27.984375 -12.707031 31.035156 -11.765625 34.671875 -11.765625 C 37.378906 -11.765625 39.800781 -12.226562 41.9375 -13.15625 C 44.082031 -14.082031 46.296875 -15.582031 48.578125 -17.65625 L 57.890625 -9.421875 C 55.179688 -6.066406 51.898438 -3.441406 48.046875 -1.546875 C 44.191406 0.335938 39.660156 1.28125 34.453125 1.28125 Z M 44.9375 -33.171875 C 44.4375 -36.804688 43.148438 -39.75 41.078125 -42 C 39.015625 -44.25 36.269531 -45.375 32.84375 -45.375 C 29.425781 -45.375 26.664062 -44.265625 24.5625 -42.046875 C 22.457031 -39.835938 21.082031 -36.878906 20.4375 -33.171875 Z M 44.9375 -33.171875 "/></g></g></g><g fill="#000000" fill-opacity="1"><g transform="translate(949.27592, 209.488247)"><g><path d="M 7.28125 -57.359375 L 23.546875 -57.359375 L 23.546875 -49.21875 C 24.472656 -50.425781 25.488281 -51.582031 26.59375 -52.6875 C 27.695312 -53.800781 28.925781 -54.785156 30.28125 -55.640625 C 31.632812 -56.492188 33.128906 -57.171875 34.765625 -57.671875 C 36.410156 -58.171875 38.269531 -58.421875 40.34375 -58.421875 C 46.539062 -58.421875 51.332031 -56.53125 54.71875 -52.75 C 58.113281 -48.96875 59.8125 -43.757812 59.8125 -37.125 L 59.8125 0 L 43.546875 0 L 43.546875 -32 C 43.546875 -35.84375 42.6875 -38.742188 40.96875 -40.703125 C 39.257812 -42.671875 36.835938 -43.65625 33.703125 -43.65625 C 30.566406 -43.65625 28.085938 -42.671875 26.265625 -40.703125 C 24.453125 -38.742188 23.546875 -35.84375 23.546875 -32 L 23.546875 0 L 7.28125 0 Z M 7.28125 -57.359375 "/></g></g></g><g fill="#000000" fill-opacity="1"><g transform="translate(1015.931442, 209.488247)"><g><path d="M 26.640625 0.96875 C 24.140625 0.96875 21.875 0.695312 19.84375 0.15625 C 17.8125 -0.375 16.0625 -1.316406 14.59375 -2.671875 C 13.132812 -4.023438 11.992188 -5.789062 11.171875 -7.96875 C 10.359375 -10.144531 9.953125 -12.910156 9.953125 -16.265625 L 9.953125 -43.4375 L 3.109375 -43.4375 L 3.109375 -57.359375 L 9.953125 -57.359375 L 9.953125 -72.015625 L 26.21875 -72.015625 L 26.21875 -57.359375 L 39.703125 -57.359375 L 39.703125 -43.4375 L 26.21875 -43.4375 L 26.21875 -18.9375 C 26.21875 -15.226562 27.960938 -13.375 31.453125 -13.375 C 34.304688 -13.375 36.984375 -14.050781 39.484375 -15.40625 L 39.484375 -2.359375 C 37.773438 -1.359375 35.882812 -0.554688 33.8125 0.046875 C 31.738281 0.660156 29.347656 0.96875 26.640625 0.96875 Z M 26.640625 0.96875 "/></g></g></g></svg>